<svg viewBox="0 0 40 40" fill="none" xmlns="http://www.w3.org/2000/svg">
  <path d="M20 4C14 4 10 8 8 12C6 16 6 18 7 22C8 26 12 32 16 35C18 36.5 20 37 20 37C20 37 22 36.5 24 35C28 32 32 26 33 22C34 18 34 16 32 12C30 8 26 4 20 4Z" fill="#dc2626"/>
  <circle cx="15" cy="16" r="2.5" fill="#0a0a0a"/>
  <circle cx="25" cy="16" r="2.5" fill="#0a0a0a"/>
  <ellipse cx="20" cy="22" rx="3.5" ry="2.5" fill="#0a0a0a"/>
  <path d="M8 12C6 8 4 6 2 7C0 8 1 12 3 14C4.5 15.5 7 16 8 15" fill="#dc2626"/>
  <path d="M32 12C34 8 36 6 38 7C40 8 39 12 37 14C35.5 15.5 33 16 32 15" fill="#dc2626"/>
  <path d="M17 24C18 25.5 19 26 20 26C21 26 22 25.5 23 24" stroke="#0a0a0a" stroke-width="1.2" stroke-linecap="round" fill="none"/>
</svg>
